<svg width="74" height="63" viewBox="0 0 74 63" fill="none" xmlns="http://www.w3.org/2000/svg">
<g filter="url(#filter0_f_73_466)">
<path d="M26.2192 55C48.107 55 60.0804 36.9132 60.0804 21.2558C60.0852 20.7473 60.078 20.2387 60.0586 19.7302C62.389 18.0464 64.4007 15.963 66 13.5771C63.8218 14.5325 61.5146 15.1635 59.1524 15.4498C61.6413 13.9665 63.5053 11.6322 64.3977 8.881C62.0606 10.2646 59.5011 11.2345 56.8324 11.7478C55.0387 9.84272 52.6651 8.58064 50.0793 8.15708C47.4935 7.73353 44.8399 8.17214 42.5294 9.40497C40.2188 10.6378 38.3804 12.5961 37.2989 14.9764C36.2173 17.3568 35.953 20.0264 36.5469 22.5717C31.8151 22.3362 27.1858 21.1109 22.9598 18.9752C18.7337 16.8395 15.0052 13.8413 12.0165 10.1752C10.4997 12.7895 10.0371 15.8814 10.7224 18.8234C11.4077 21.7655 13.1897 24.3373 15.7067 26.017C13.8196 25.9562 11.9737 25.4507 10.32 24.542V24.7047C10.3246 27.4428 11.2763 30.0954 13.0145 32.2149C14.7527 34.3343 17.171 35.7908 19.861 36.3384C18.8397 36.6191 17.7847 36.759 16.7254 36.7541C15.9783 36.7619 15.2325 36.6928 14.4996 36.5481C15.2587 38.9062 16.7391 40.9682 18.733 42.4445C20.727 43.9209 23.1344 44.7375 25.6175 44.7799C21.3984 48.0804 16.1898 49.8717 10.8275 49.8664C9.88246 49.8735 8.93796 49.8192 8 49.7037C13.4427 53.1652 19.7641 55.0028 26.2192 55Z" fill="white"/>
</g>
<defs>
<filter id="filter0_f_73_466" x="0" y="0" width="74" height="63" filterUnits="userSpaceOnUse" color-interpolation-filters="sRGB">
<feFlood flood-opacity="0" result="BackgroundImageFix"/>
<feBlend mode="normal" in="SourceGraphic" in2="BackgroundImageFix" result="shape"/>
<feGaussianBlur stdDeviation="4" result="effect1_foregroundBlur_73_466"/>
</filter>
</defs>
</svg>
